<svg width="32" height="32" viewBox="0 0 32 32" fill="none" xmlns="http://www.w3.org/2000/svg">
  <!-- Background circle with subtle gradient -->
  <circle cx="16" cy="16" r="16" fill="url(#bgGradient)"/>
  
  <!-- Main 'S' letter with modern geometric style -->
  <path d="M8 12C8 10.5 9.5 9 11 9H21C22.5 9 24 10.5 24 12V14C24 15.5 22.5 17 21 17H11C9.5 17 8 15.5 8 14V12Z" fill="url(#textGradient)"/>
  <path d="M8 18C8 16.5 9.5 15 11 15H21C22.5 15 24 16.5 24 18V20C24 21.5 22.5 23 21 23H11C9.5 23 8 21.5 8 20V18Z" fill="url(#textGradient)"/>
  
  <!-- Subtle accent line -->
  <rect x="6" y="16" width="20" height="1" fill="url(#accentGradient)" opacity="0.6"/>
  
  <!-- Gradient definitions -->
  <defs>
    <linearGradient id="bgGradient" x1="0%" y1="0%" x2="100%" y2="100%">
      <stop offset="0%" style="stop-color:#0a0a0a;stop-opacity:1" />
      <stop offset="100%" style="stop-color:#1a1a1a;stop-opacity:1" />
    </linearGradient>
    <linearGradient id="textGradient" x1="0%" y1="0%" x2="100%" y2="100%">
      <stop offset="0%" style="stop-color:#ffffff;stop-opacity:0.95" />
      <stop offset="100%" style="stop-color:#ffffff;stop-opacity:0.8" />
    </linearGradient>
    <linearGradient id="accentGradient" x1="0%" y1="0%" x2="100%" y2="0%">
      <stop offset="0%" style="stop-color:#8b5cf6;stop-opacity:0.8" />
      <stop offset="50%" style="stop-color:#ec4899;stop-opacity:0.6" />
      <stop offset="100%" style="stop-color:#3b82f6;stop-opacity:0.8" />
    </linearGradient>
  </defs>
</svg>

